<svg width="44" height="40" viewBox="0 0 44 40" fill="none" xmlns="http://www.w3.org/2000/svg">
<path d="M12.5972 19.167C12.6507 19.3808 12.717 19.5889 12.7868 19.796" stroke="#939393" stroke-width="0.5" stroke-miterlimit="10"/>
<path d="M12.6147 17.9497C12.561 18.1647 12.5054 18.4016 12.5166 18.6808" stroke="#939393" stroke-width="0.5" stroke-miterlimit="10"/>
<path d="M12.7861 18.9189C13.0555 18.9054 13.3208 18.8756 13.5804 18.8389" stroke="#939393" stroke-width="0.5" stroke-miterlimit="10"/>
<path d="M11.5532 18.8818C11.7836 18.9013 12.04 18.9196 12.3194 18.9248" stroke="#939393" stroke-width="0.5" stroke-miterlimit="10"/>
<path d="M12.5529 19.2429C12.7228 19.2429 12.8606 19.1012 12.8606 18.9264C12.8606 18.7516 12.7228 18.6099 12.5529 18.6099C12.3829 18.6099 12.2451 18.7516 12.2451 18.9264C12.2451 19.1012 12.3829 19.2429 12.5529 19.2429Z" stroke="#939393" stroke-width="0.5" stroke-miterlimit="10"/>
<path d="M13.2222 22.1611C13.2468 22.3751 13.2592 22.5902 13.2595 22.8055" stroke="#939393" stroke-width="0.5" stroke-miterlimit="10"/>
<path d="M12.9932 21.1509C13.0485 21.3248 13.0997 21.5017 13.1408 21.6843" stroke="#939393" stroke-width="0.5" stroke-miterlimit="10"/>
<path d="M13.4185 21.9326C13.6243 21.9122 13.8273 21.8845 14.027 21.856" stroke="#939393" stroke-width="0.5" stroke-miterlimit="10"/>
<path d="M12.3198 21.9658C12.434 21.9701 12.5523 21.9724 12.6747 21.9725C12.7681 21.9725 12.8615 21.9705 12.955 21.9665" stroke="#939393" stroke-width="0.5" stroke-miterlimit="10"/>
<path d="M13.1839 22.2491C13.358 22.2491 13.4992 22.1039 13.4992 21.9248C13.4992 21.7458 13.358 21.6006 13.1839 21.6006C13.0098 21.6006 12.8687 21.7458 12.8687 21.9248C12.8687 22.1039 13.0098 22.2491 13.1839 22.2491Z" stroke="#939393" stroke-width="0.5" stroke-miterlimit="10"/>
<path d="M17.4082 22.0562C17.4174 22.1052 17.4252 22.1547 17.4316 22.2049C17.4509 22.3487 17.4766 22.5777 17.4758 22.7229" stroke="#939393" stroke-width="0.5" stroke-miterlimit="10"/>
<path d="M17.0972 20.9902C17.1637 21.1608 17.2342 21.4149 17.2898 21.592" stroke="#939393" stroke-width="0.5" stroke-miterlimit="10"/>
<path d="M17.5957 21.8423C17.7625 21.8581 17.9361 21.8783 18.112 21.9009" stroke="#939393" stroke-width="0.5" stroke-miterlimit="10"/>
<path d="M16.4829 21.827C16.6378 21.8133 16.7896 21.8052 16.9375 21.8052C16.999 21.8052 17.0628 21.8065 17.1288 21.8093" stroke="#939393" stroke-width="0.5" stroke-miterlimit="10"/>
<path d="M17.362 22.1309C17.5288 22.1309 17.664 21.9918 17.664 21.8203C17.664 21.6488 17.5288 21.5098 17.362 21.5098C17.1952 21.5098 17.0601 21.6488 17.0601 21.8203C17.0601 21.9918 17.1952 22.1309 17.362 22.1309Z" stroke="#939393" stroke-width="0.5" stroke-miterlimit="10"/>
<path d="M16.8481 18.8481C16.8552 18.9048 16.8645 18.963 16.8769 19.0228C16.9089 19.1742 16.9495 19.3236 16.9983 19.4702" stroke="#939393" stroke-width="0.5" stroke-miterlimit="10"/>
<path d="M16.9315 17.7881C16.9016 17.9712 16.8614 18.1629 16.8423 18.3741" stroke="#939393" stroke-width="0.5" stroke-miterlimit="10"/>
<path d="M17.064 18.6328C17.2116 18.6419 17.3676 18.6568 17.5312 18.6749" stroke="#939393" stroke-width="0.5" stroke-miterlimit="10"/>
<path d="M15.7744 18.7154C16.049 18.67 16.3257 18.6402 16.6035 18.626" stroke="#939393" stroke-width="0.5" stroke-miterlimit="10"/>
<path d="M16.8305 18.9223C16.9956 18.9223 17.1293 18.7847 17.1293 18.6149C17.1293 18.4452 16.9956 18.3076 16.8305 18.3076C16.6655 18.3076 16.5317 18.4452 16.5317 18.6149C16.5317 18.7847 16.6655 18.9223 16.8305 18.9223Z" stroke="#939393" stroke-width="0.5" stroke-miterlimit="10"/>
<path d="M5.70674 35.6777H4.00146L4.32283 39.1101C4.3485 39.3844 4.57868 39.594 4.8541 39.594C5.12953 39.594 5.3597 39.3844 5.38537 39.1101L5.70674 35.6777Z" stroke="#939393" stroke-width="0.5" stroke-miterlimit="10"/>
<path d="M39.9987 35.6777H38.2935L38.6148 39.1101C38.6405 39.3844 38.8707 39.594 39.1461 39.594C39.4215 39.594 39.6517 39.3844 39.6774 39.1101L39.9987 35.6777Z" stroke="#939393" stroke-width="0.5" stroke-miterlimit="10"/>
<path d="M2.57645 28.1096C2.46806 28.1096 2.36621 28.0032 2.36621 27.8713V26.1035C2.36621 25.4766 2.76333 24.9565 3.27725 24.9115C4.0299 24.8457 5.22172 24.7705 6.78123 24.7705H37.2142C38.7728 24.7705 39.9707 24.8452 40.7222 24.9111C41.2361 24.956 41.6332 25.4761 41.6332 26.103V27.871C41.6332 28.0032 41.5314 28.1113 41.423 28.1113L2.57645 28.1096Z" stroke="#939393" stroke-width="0.5" stroke-miterlimit="10"/>
<path d="M41.0478 35.6776H2.95254C2.56267 35.6776 2.36621 35.5927 2.36621 35.4878V29.7233C2.36621 29.6469 2.4447 29.585 2.60542 29.585H41.3975C41.5557 29.585 41.6342 29.6457 41.6342 29.7204V35.4878C41.6342 35.5927 41.4377 35.6776 41.0478 35.6776Z" stroke="#939393" stroke-width="0.5" stroke-miterlimit="10"/>
<path d="M5.42453 24.7701V20.0622C5.42453 19.9408 5.37764 19.8244 5.29419 19.7385C5.21073 19.6527 5.09754 19.6045 4.97952 19.6045H0.847158C0.729338 19.6048 0.616449 19.6532 0.533246 19.739C0.450044 19.8248 0.40332 19.941 0.40332 20.0622V35.1961C0.40363 35.3173 0.45065 35.4334 0.534072 35.5189C0.617493 35.6045 0.730505 35.6526 0.848326 35.6526H2.35753V35.2441" stroke="#939393" stroke-width="0.5" stroke-miterlimit="10"/>
<path d="M38.5686 24.7701V20.0622C38.5686 19.9408 38.6155 19.8244 38.699 19.7385C38.7824 19.6527 38.8956 19.6045 39.0137 19.6045H43.146C43.2638 19.6048 43.3767 19.6532 43.4599 19.739C43.5431 19.8248 43.5898 19.941 43.5898 20.0622V35.1961C43.5895 35.3173 43.5425 35.4334 43.4591 35.5189C43.3757 35.6045 43.2627 35.6526 43.1448 35.6526H41.6356V35.2441" stroke="#939393" stroke-width="0.5" stroke-miterlimit="10"/>
<path d="M2.36621 19.6044V14.3668C2.36621 13.6941 3.01819 13.4058 3.5342 13.4058H40.4662C40.9822 13.4058 41.6342 13.598 41.6342 14.3668V19.6044" stroke="#939393" stroke-width="0.5" stroke-miterlimit="10"/>
<path d="M8.94194 16.1751C9.17904 15.8991 9.70417 16.1751 10.2193 16.1751C10.7343 16.1751 11.9764 15.9589 14.0503 15.9589C16.1242 15.9589 17.8813 16.103 18.2733 16.103C18.6653 16.103 19.0147 15.7186 19.2208 15.9589C19.4268 16.1991 19.4268 17.016 19.4268 17.4004C19.4268 17.7848 19.9982 18.5013 20.1423 20.3498C20.2825 22.1431 20.225 23.138 20.225 23.4252C20.225 23.7123 20.812 24.2536 20.6163 24.4823C20.4205 24.711 19.9776 24.7706 19.7716 24.7706H10.6472C10.4206 24.7706 10.0602 24.6865 9.90553 24.5063C9.75089 24.3261 10.1321 23.8336 10.1321 23.5213C10.1321 23.2089 9.47267 22.2169 9.34232 20.7845C9.19819 19.2 9.19002 17.3031 9.19002 16.9672C9.19002 16.6314 8.78776 16.3551 8.94194 16.1751Z" stroke="#939393" stroke-width="0.5" stroke-miterlimit="10"/>
<path d="M11.5697 24.7704H9.58407C8.60039 24.7704 6.96076 24.7829 6.8804 24.7002C6.70847 24.5236 7.09064 23.8214 7.09064 23.521C7.09064 23.2207 6.71688 22.3125 6.56971 20.9339C6.40619 19.409 6.73323 17.5838 6.73323 17.2601C6.73323 16.9365 6.49519 16.6184 6.67016 16.4452C6.93856 16.1795 7.46439 16.6302 8.04839 16.6302C8.27755 16.6302 8.53007 16.6525 9.10519 16.6799" stroke="#939393" stroke-width="0.5" stroke-miterlimit="10"/>
</svg>
