<svg width="44" height="40" viewBox="0 0 44 40" fill="none" xmlns="http://www.w3.org/2000/svg">
<path d="M41.7 17.1167H2.29346V21.345H41.7V17.1167Z" stroke="#939393" stroke-width="0.5" stroke-miterlimit="10"/>
<path d="M5.63544 39.168C5.60774 39.4206 5.39435 39.6119 5.14024 39.6119V39.6119C4.84872 39.6119 4.61949 39.3627 4.64381 39.0722L6.12776 21.3447H7.59019L5.63544 39.168Z" stroke="#939393" stroke-width="0.5" stroke-miterlimit="10"/>
<path d="M38.5363 39.168C38.564 39.4206 38.7774 39.6119 39.0315 39.6119V39.6119C39.323 39.6119 39.5522 39.3627 39.5279 39.0722L38.044 21.3447H36.5815L38.5363 39.168Z" stroke="#939393" stroke-width="0.5" stroke-miterlimit="10"/>
<line x1="22.2471" y1="17.1597" x2="22.2471" y2="21.3449" stroke="#939393" stroke-width="0.5" stroke-miterlimit="10"/>
<path d="M42.9938 14H1V15.6536H42.9938V14Z" stroke="#939393" stroke-width="0.5" stroke-miterlimit="10"/>
<line x1="10.5781" y1="19.2866" x2="13.609" y2="19.2866" stroke="#939393" stroke-width="0.5" stroke-miterlimit="10"/>
<line x1="30.3696" y1="19.2866" x2="33.4005" y2="19.2866" stroke="#939393" stroke-width="0.5" stroke-miterlimit="10"/>
</svg>
