<svg width="44" height="41" viewBox="0 0 44 41" fill="none" xmlns="http://www.w3.org/2000/svg">
<path d="M7 6L16.9998 9.07943V40L7 36.9206V6Z" stroke="#939393" stroke-width="0.5" stroke-miterlimit="10" stroke-linejoin="round"/>
<path d="M27 6L36.9998 9.07943V40L27 36.9206V6Z" stroke="#939393" stroke-width="0.5" stroke-miterlimit="10" stroke-linejoin="round"/>
<path d="M27 6L17.0002 9.07943V40L27 36.9206V6Z" stroke="#939393" stroke-width="0.5" stroke-miterlimit="10" stroke-linejoin="bevel"/>
<path d="M8.33594 7.84032L15.6644 9.99592V18.7755L8.33594 16.6199V7.84032Z" stroke="#939393" stroke-width="0.5" stroke-miterlimit="10"/>
<path d="M28.3359 7.84032L35.6644 9.99592V18.7755L28.3359 16.6199V7.84032Z" stroke="#939393" stroke-width="0.5" stroke-miterlimit="10"/>
<path d="M25.6646 7.84033L18.3361 9.99593V18.7755L25.6646 16.6199V7.84033Z" stroke="#939393" stroke-width="0.5" stroke-miterlimit="10"/>
<path d="M8.33594 17.9375L15.6644 20.0931V38.015L8.33594 35.8594V17.9375Z" stroke="#939393" stroke-width="0.5" stroke-miterlimit="10"/>
<path d="M28.3359 17.9375L35.6644 20.0931V38.015L28.3359 35.8594V17.9375Z" stroke="#939393" stroke-width="0.5" stroke-miterlimit="10"/>
<path d="M25.6646 17.9375L18.3361 20.0931V38.015L25.6646 35.8594V17.9375Z" stroke="#939393" stroke-width="0.5" stroke-miterlimit="10"/>
<path d="M8.33545 9.59668L11.9997 10.6745L15.6639 11.7523" stroke="#939393" stroke-width="0.5" stroke-miterlimit="10"/>
<path d="M28.3359 9.59668L32.0002 10.6745L35.6644 11.7523" stroke="#939393" stroke-width="0.5" stroke-miterlimit="10"/>
<path d="M25.6641 9.59668L21.9998 10.6745L18.3356 11.7523" stroke="#939393" stroke-width="0.5" stroke-miterlimit="10"/>
<path d="M8.33545 11.3525L11.9997 12.4303L15.6639 13.5081" stroke="#939393" stroke-width="0.5" stroke-miterlimit="10"/>
<path d="M28.3359 11.3525L32.0002 12.4303L35.6644 13.5081" stroke="#939393" stroke-width="0.5" stroke-miterlimit="10"/>
<path d="M25.6641 11.3525L21.9998 12.4303L18.3356 13.5081" stroke="#939393" stroke-width="0.5" stroke-miterlimit="10"/>
<path d="M8.33545 13.1074L11.9997 14.1852L15.6639 15.263" stroke="#939393" stroke-width="0.5" stroke-miterlimit="10"/>
<path d="M28.3359 13.1074L32.0002 14.1852L35.6644 15.263" stroke="#939393" stroke-width="0.5" stroke-miterlimit="10"/>
<path d="M25.6641 13.1074L21.9998 14.1852L18.3356 15.263" stroke="#939393" stroke-width="0.5" stroke-miterlimit="10"/>
<path d="M8.33545 14.8633L11.9997 15.9411L15.6639 17.0189" stroke="#939393" stroke-width="0.5" stroke-miterlimit="10"/>
<path d="M28.3359 14.8633L32.0002 15.9411L35.6644 17.0189" stroke="#939393" stroke-width="0.5" stroke-miterlimit="10"/>
<path d="M25.6641 14.8633L21.9998 15.9411L18.3356 17.0189" stroke="#939393" stroke-width="0.5" stroke-miterlimit="10"/>
</svg>
