<svg width="44" height="40" viewBox="0 0 44 40" fill="none" xmlns="http://www.w3.org/2000/svg">
<path d="M21.4712 26.8374L21.4712 29.9198C21.4712 29.9325 21.4745 29.9451 21.4809 29.9568C21.4873 29.9686 21.4967 29.9792 21.5085 29.9882C21.5203 29.9972 21.5343 30.0043 21.5498 30.0091C21.5652 30.014 21.5818 30.0165 21.5985 30.0165H23.3023C23.319 30.0165 23.3355 30.014 23.351 30.0091C23.3664 30.0043 23.3804 29.9972 23.3923 29.9882C23.4041 29.9792 23.4135 29.9686 23.4199 29.9568C23.4263 29.9451 23.4295 29.9325 23.4295 29.9198V26.8374" stroke="#212121" stroke-width="0.5" stroke-miterlimit="10"/>
<path d="M21.6167 30.0166L21.6167 32.4817" stroke="#212121" stroke-width="0.5" stroke-miterlimit="10"/>
<path d="M13.6 17.0388C13.6 17.0388 13.1477 17.397 13.1477 17.713V24.0664C13.1477 24.3715 12.9003 24.6189 12.5951 24.6189V24.6189C12.2899 24.6189 12.0425 24.3715 12.0425 24.0664V17.713C12.0425 17.397 11.5902 17.0388 11.5902 17.0388" stroke="#212121" stroke-width="0.5" stroke-miterlimit="10"/>
<path d="M33.3041 17.0388C33.3041 17.0388 32.8518 17.397 32.8518 17.713V24.0664C32.8518 24.3715 32.6044 24.6189 32.2992 24.6189V24.6189C31.994 24.6189 31.7467 24.3715 31.7467 24.0664V17.713C31.7467 17.397 31.2943 17.0388 31.2943 17.0388" stroke="#212121" stroke-width="0.5" stroke-miterlimit="10"/>
<path d="M21.8561 34.7119C19.2727 34.7119 17.075 36.3886 17.075 36.3886V36.6479H16.0542V35.882C16.0543 35.7394 16.101 35.6009 16.1871 35.4876C16.2732 35.3744 16.3939 35.2928 16.5307 35.2554L17.5019 34.9581" stroke="#212121" stroke-width="0.5" stroke-miterlimit="10"/>
<path d="M16.8219 38.2279C16.8219 38.8043 16.3702 39.2811 15.813 39.2811C15.2559 39.2811 14.8042 38.8043 14.8042 38.2279C14.8042 37.6515 15.2559 37.1938 15.813 37.1938C16.3702 37.1938 16.8219 37.6515 16.8219 38.2279Z" stroke="#212121" stroke-width="0.5" stroke-miterlimit="10"/>
<path d="M28.1715 38.2406C28.1715 37.6605 28.6261 37.1806 29.1868 37.1806C29.7475 37.1806 30.2021 37.6605 30.2021 38.2406C30.2021 38.8206 29.7475 39.2812 29.1868 39.2812C28.6261 39.2812 28.1715 38.8206 28.1715 38.2406Z" stroke="#212121" stroke-width="0.5" stroke-miterlimit="10"/>
<path d="M15.8081 37.1938H16.4255C16.9826 37.1938 17.4343 37.6515 17.4343 38.2279C17.4343 38.8043 16.9826 39.2811 16.4255 39.2811H15.8081" stroke="#212121" stroke-width="0.5" stroke-miterlimit="10"/>
<path d="M29.1924 39.2812L28.571 39.2812C28.0103 39.2812 27.5557 38.8206 27.5557 38.2406C27.5557 37.6605 28.0103 37.1806 28.571 37.1806L29.1924 37.1806" stroke="#212121" stroke-width="0.5" stroke-miterlimit="10"/>
<path d="M22.7791 39.2811C23.3521 39.2811 23.8165 38.8139 23.8165 38.2375C23.8165 37.6611 23.3521 37.1938 22.7791 37.1938C22.2062 37.1938 21.7417 37.6611 21.7417 38.2375C21.7417 38.8139 22.2062 39.2811 22.7791 39.2811Z" stroke="#212121" stroke-width="0.5" stroke-miterlimit="10"/>
<path d="M23.2837 30.0166L23.2837 32.4817" stroke="#212121" stroke-width="0.5" stroke-miterlimit="10"/>
<path d="M29.9849 9.75323C29.9849 13.0055 29.4765 17.5241 29.1513 20.2313C29.0053 21.4463 27.9628 22.3728 26.7391 22.3728H18.1608C16.9371 22.3728 15.8942 21.4462 15.7476 20.2313C15.4224 17.5346 14.915 13.0376 14.915 9.75323C14.915 8.21048 14.8795 6.93254 14.8406 5.99591C14.797 4.94689 15.416 3.97597 16.435 3.72286C17.7995 3.38391 19.9065 3 22.45 3C24.9934 3 27.1004 3.38391 28.4649 3.72286C29.4839 3.97597 30.1029 4.94689 30.0593 5.99591C30.0204 6.93254 29.9849 8.21048 29.9849 9.75323Z" stroke="#212121" stroke-width="0.5" stroke-miterlimit="10"/>
<path d="M22.4501 26.8375C27.5643 26.8375 29.9577 26.1796 30.6365 25.9508C30.7047 25.9278 30.7657 25.887 30.8131 25.8324C30.8605 25.7779 30.8926 25.7117 30.906 25.6406C30.936 25.478 30.951 25.0705 30.9504 24.9051C30.9513 24.7372 30.9296 24.2259 30.8865 24.0637C30.8679 23.9942 30.8302 23.9315 30.7776 23.8828C30.725 23.834 30.6597 23.8013 30.5894 23.7885C30.4599 23.7655 30.3287 23.7539 30.1973 23.7539C29.3044 23.7539 26.4291 24.1129 22.4501 24.1129C18.4711 24.1129 15.5959 23.7539 14.703 23.7539C14.5715 23.7539 14.4403 23.7655 14.3109 23.7885C14.2406 23.8013 14.1753 23.8339 14.1228 23.8826C14.0702 23.9312 14.0324 23.9939 14.0138 24.0633C13.9706 24.2255 13.9494 24.7367 13.9502 24.9047C13.9496 25.07 13.9642 25.4776 13.9942 25.6401C14.0077 25.7113 14.0398 25.7775 14.0872 25.832C14.1345 25.8865 14.1955 25.9274 14.2638 25.9503C14.9425 26.1796 17.3355 26.8375 22.4501 26.8375Z" stroke="#212121" stroke-width="0.5" stroke-miterlimit="10"/>
<path d="M22.9081 36.6541H22.4498H21.9923L21.8898 34.6008C21.8893 34.5913 21.8852 34.5823 21.8784 34.5758C21.8715 34.5692 21.8624 34.5656 21.8529 34.5656C16.4966 34.5733 12.7214 36.347 12.7214 36.347V36.6541H11.7422C11.7424 36.3332 11.7595 36.1246 11.7934 35.8055C11.8015 35.7292 11.8304 35.6567 11.8767 35.5958C11.9231 35.535 11.9853 35.4882 12.0564 35.4605C13.3676 34.9523 19.8496 32.4697 21.3456 32.4697C21.7831 32.4697 21.8456 32.5326 21.9915 32.5326C22.1373 32.5326 22.179 32.4697 22.4498 32.4697C22.7206 32.4697 22.7623 32.5326 22.9081 32.5326C23.054 32.5326 23.1165 32.4697 23.554 32.4697C25.05 32.4697 31.532 34.9533 32.8433 35.4605C32.9145 35.488 32.9768 35.5348 33.0234 35.5957C33.0699 35.6565 33.0988 35.7291 33.107 35.8055C33.1409 36.1246 33.158 36.3332 33.1583 36.6541H32.1791V36.347C32.1791 36.347 28.4038 34.5733 23.0475 34.5656C23.0381 34.5656 23.029 34.5692 23.0221 34.5758C23.0152 34.5823 23.0111 34.5913 23.0106 34.6008L22.9081 36.6541Z" stroke="#212121" stroke-width="0.5" stroke-miterlimit="10"/>
<path d="M23.0435 34.7119C25.6268 34.7119 27.8248 36.3886 27.8248 36.3886V36.6805H28.8457V35.882C28.8456 35.7394 28.7989 35.6009 28.7128 35.4876C28.6267 35.3744 28.506 35.2928 28.3692 35.2554L27.3977 34.9581" stroke="#212121" stroke-width="0.5" stroke-miterlimit="10"/>
<path d="M33.5483 39.2808C33.744 39.2808 33.9027 38.8106 33.9027 38.2305C33.9027 37.6504 33.744 37.1802 33.5483 37.1802C33.3525 37.1802 33.1938 37.6504 33.1938 38.2305C33.1938 38.8106 33.3525 39.2808 33.5483 39.2808Z" stroke="#212121" stroke-width="0.5" stroke-miterlimit="10"/>
<path d="M11.3546 37.1806C11.1588 37.1806 11.0002 37.6509 11.0002 38.2309C11.0002 38.811 11.1588 39.2812 11.3546 39.2812C11.5503 39.2812 11.709 38.811 11.709 38.2309C11.709 37.6509 11.5503 37.1806 11.3546 37.1806Z" stroke="#212121" stroke-width="0.5" stroke-miterlimit="10"/>
<path d="M33.5593 37.1802H31.9584C31.7626 37.1802 31.604 37.6504 31.604 38.2305C31.604 38.8106 31.7626 39.2808 31.9584 39.2808H33.5593" stroke="#212121" stroke-width="0.5" stroke-miterlimit="10"/>
<path d="M11.3435 39.2812L12.9444 39.2812C13.1402 39.2812 13.2988 38.811 13.2988 38.2309C13.2988 37.6509 13.1402 37.1806 12.9444 37.1806L11.3435 37.1806" stroke="#212121" stroke-width="0.5" stroke-miterlimit="10"/>
</svg>
